<?xml version="1.0" encoding="UTF-8"?>
<svg xmlns="http://www.w3.org/2000/svg" xmlns:xlink="http://www.w3.org/1999/xlink" width="51px" height="51px" viewBox="0 0 51 51" version="1.1">
<g id="surface1">
<path style=" stroke:none;fill-rule:nonzero;fill:rgb(100%,100%,100%);fill-opacity:1;" d="M 7.535156 25.792969 C 7.535156 15.4375 16.027344 7.050781 26.503906 7.050781 C 36.984375 7.050781 45.472656 15.4375 45.472656 25.792969 C 45.472656 36.152344 36.984375 44.539062 26.503906 44.539062 C 16.027344 44.539062 7.535156 36.152344 7.535156 25.792969 Z M 7.535156 25.792969 "/>
<path style="fill-rule:nonzero;fill:rgb(15.294118%,30.980392%,55.686275%);fill-opacity:1;stroke-width:1;stroke-linecap:butt;stroke-linejoin:miter;stroke:rgb(4.313725%,4.313725%,83.529412%);stroke-opacity:1;stroke-miterlimit:4;" d="M 239.686275 210.980392 L 156.745098 298.823529 L 232.235294 257.372549 L 271.686275 298.823529 L 354.156863 210.980392 L 279.529412 251.686275 Z M 239.686275 210.980392 " transform="matrix(0.0996094,0,0,0.0996094,0,0)"/>
<path style="fill-rule:nonzero;fill:rgb(15.294118%,30.980392%,55.686275%);fill-opacity:1;stroke-width:1;stroke-linecap:butt;stroke-linejoin:miter;stroke:rgb(15.294118%,30.980392%,55.686275%);stroke-opacity:1;stroke-miterlimit:4;" d="M 256 0 C 114.627451 0 0 114.627451 0 256 C 0 397.372549 114.627451 512 256 512 C 397.372549 512 512 397.372549 512 256 C 512 114.627451 397.372549 0 256 0 Z M 258 393.019608 C 242.156863 393.019608 226.862745 390.784314 212.470588 386.666667 L 160.823529 416 L 160.823529 360.784314 C 126.27451 334.470588 104.196078 294.392157 104.196078 249.529412 C 104.196078 170.235294 173.058824 106 258 106 C 342.941176 106 411.803922 170.235294 411.803922 249.529412 C 411.803922 328.784314 342.941176 393.019608 258 393.019608 Z M 258 393.019608 " transform="matrix(0.0996094,0,0,0.0996094,0,0)"/>
</g>
</svg>
